<svg width="1757" height="1042" viewBox="0 0 1757 1042" fill="none" xmlns="http://www.w3.org/2000/svg">
<path d="M1712.93 240.984L1355.18 81.5599C1344.52 72.7545 1331.54 66.2662 1317.18 64.4124H1316.71L1290.3 52.8264C1270.37 44.021 1248.59 44.4844 1230.06 52.8264L952.475 13.8974C937.183 3.23819 918.183 -2.32306 898.72 0.92104L878.793 3.70158L858.866 0.92104C838.94 -1.85962 819.94 3.23819 805.111 13.8974L527.529 52.8264C508.992 44.9478 487.212 44.4844 467.286 52.8264L440.871 64.4124H440.408C425.579 66.7296 412.603 72.7546 401.945 82.0235L44.6565 240.984C6.65692 257.668 -10.4892 302.159 6.65692 340.161L299.068 996.859C316.214 1034.86 360.238 1051.55 398.238 1034.86L683.234 907.878L878.793 880.535L1074.35 907.878L1359.35 1034.86C1397.35 1051.55 1441.37 1034.86 1458.05 996.859L1750.47 340.161C1767.15 302.159 1750.47 258.132 1712.47 240.984H1712.93ZM981.67 54.6802L1194.84 84.3405C1194.84 84.3405 1192.52 88.5114 1191.59 90.8286L1068.79 367.041C1059.99 347.113 1053.5 329.038 1051.18 316.989C1051.18 314.672 1050.25 313.745 1049.33 313.281C1048.4 313.281 1047.47 314.208 1046.55 316.062C1042.38 324.404 1034.04 335.99 1024.3 348.503C1015.04 360.089 1003.91 373.065 992.328 385.115C967.304 412.458 939.963 437.484 926.524 445.826L925.134 447.216L926.061 449.07C939.963 463.9 966.841 511.171 985.84 552.881L899.646 746.6C885.281 778.577 895.476 815.653 922.353 836.044C926.987 839.752 932.085 842.996 938.109 845.313L953.865 852.265L880.183 842.069L837.55 836.044L773.136 826.776L744.404 822.604C723.551 819.824 709.185 800.359 711.966 779.504L735.6 609.884L773.599 340.624L812.062 67.6565C812.989 59.3145 816.696 52.3631 822.257 46.8017C830.598 37.9963 842.647 33.3619 855.159 35.2157L880.183 38.9233L938.109 46.8017L982.597 53.2899L981.67 54.6802ZM383.409 1001.49C363.945 1009.84 341.702 1001.49 332.897 982.029L40.4858 325.331C32.1444 305.866 40.4858 283.621 59.949 274.815L376.457 133.929C376.457 139.027 376.457 144.125 376.921 149.686L416.774 432.386C399.164 424.507 383.872 416.629 374.604 408.75C373.214 407.36 372.287 407.36 372.287 407.36C372.287 407.36 371.36 408.287 371.36 410.14C371.36 439.337 345.872 494.024 335.214 538.514C325.482 579.761 335.214 626.568 375.994 638.618C400.091 646.033 428.359 633.983 442.262 612.665L477.017 861.07C482.578 899.072 515.48 926.416 553.016 925.489L383.409 1001.03V1001.49ZM673.503 872.193L556.724 888.413C535.87 891.194 516.87 876.827 513.627 855.972L489.066 682.181L479.334 613.592L477.017 596.445L456.164 449.07L413.067 143.661C411.676 132.075 415.384 120.489 422.798 112.61C428.359 106.122 436.237 101.952 445.505 100.561L451.53 99.6342L520.114 89.9019L562.748 83.8773L775.916 53.7535C774.989 56.9975 774.526 59.7781 774.063 63.0222L738.38 316.989C729.112 314.208 719.38 313.281 709.649 314.671C673.039 319.769 648.015 353.601 653.113 389.749C655.43 404.579 662.381 418.019 672.112 427.751C668.405 427.751 664.698 427.752 660.991 428.215C624.845 433.313 599.357 467.144 604.455 503.292C609.552 539.441 643.381 564.93 679.527 559.833C688.795 558.442 697.6 555.198 705.478 550.564L673.966 774.406C669.332 807.311 686.942 837.898 714.746 851.801C721.697 855.509 729.575 857.826 737.453 859.216L745.795 860.143L672.576 870.339L673.503 872.193ZM1717.56 325.331L1425.15 982.029C1416.35 1001.49 1393.64 1009.84 1374.64 1001.49L1205.03 925.952L1084.55 872.193L1042.84 853.655L985.84 828.629L952.012 813.336C932.548 804.53 924.207 782.285 932.548 762.82L1003.45 602.933L1017.35 571.419L1045.62 507.927L1088.72 410.604L1224.5 106.122C1227.28 99.6341 1231.91 94.5362 1237.01 90.8286C1247.67 82.9501 1262.03 81.0965 1275.01 86.6578L1305.59 100.098L1334.32 112.61L1381.13 133.466L1697.64 274.352C1717.1 282.694 1725.44 305.403 1717.1 324.867L1717.56 325.331Z" fill="#FEBE00"/>
<path d="M1357.49 470.39C1363.98 428.68 1325.98 389.287 1280.57 401.337C1237.47 412.46 1217.08 464.365 1230.52 519.051C1242.57 569.567 1271.76 626.107 1272.69 656.694L1273.62 658.547H1275.93C1299.11 638.156 1360.74 622.399 1406.62 597.373C1456.2 570.493 1481.22 520.905 1460.37 481.049C1438.59 439.339 1383.91 437.485 1357.49 469.926V470.39Z" fill="#FEBE00"/>
<path d="M1261.11 268.79V269.717H1262.5C1273.15 260.911 1300.96 253.497 1321.81 242.374C1344.06 230.324 1355.64 207.616 1346.37 189.542C1336.64 171.004 1311.62 170.077 1299.57 184.907C1302.35 165.906 1285.2 148.295 1264.81 153.393C1244.89 158.491 1236.08 182.126 1242.11 206.689C1247.67 229.397 1260.64 254.887 1261.57 268.79H1261.11Z" fill="#FEBE00"/>
<path d="M1370.01 858.29C1372.79 839.289 1355.64 821.678 1335.25 826.776C1315.79 831.874 1306.52 855.509 1312.54 880.072C1318.1 902.781 1331.08 928.27 1332.01 942.173V943.1H1333.4C1344.06 934.294 1371.86 926.879 1392.71 915.757C1415.42 903.707 1426.54 880.999 1417.27 863.388C1407.54 844.387 1382.52 843.46 1370.47 858.29H1370.01Z" fill="#FEBE00"/>
<path d="M176.265 331.818C160.973 323.476 139.192 316.524 130.851 309.572H129.924V310.036C129.924 321.158 120.193 341.55 116.485 358.697C112.778 374.454 116.485 392.065 131.778 396.236C141.973 399.48 154.485 392.992 158.656 383.26C162.826 394.846 166.07 405.968 166.997 416.164L186.46 407.359C179.046 399.944 173.021 389.748 167.46 379.089C177.655 382.796 190.631 377.698 194.802 367.966C201.753 353.599 191.094 338.769 177.192 331.354L176.265 331.818Z" fill="#FEBE00"/>
<path d="M544.674 186.299C544.674 186.299 541.43 186.762 540.04 187.226C542.821 182.128 544.211 175.64 543.284 169.151C540.967 153.394 526.601 142.735 510.845 144.589C495.089 146.906 484.431 161.273 486.285 177.03C487.211 183.518 489.992 189.08 494.626 193.251C493.236 193.251 491.382 193.251 489.992 193.251C474.236 195.568 463.578 209.934 465.431 225.691C467.748 241.448 482.114 252.108 497.87 250.254C506.675 248.863 514.089 243.766 518.26 236.814C519.187 249.327 518.723 261.376 516.406 272.036L540.04 268.792C534.943 259.059 531.235 247.473 528.455 234.96C534.479 240.521 542.821 243.302 551.625 241.912C567.381 239.595 578.04 225.228 576.186 209.471C573.869 193.714 559.503 183.055 543.747 184.909L544.674 186.299Z" fill="#FEBE00"/>
<path d="M904.28 95.4629L902.89 96.8532C895.475 111.683 862.573 145.978 851.451 152.466V153.393V154.32C860.256 164.052 882.5 205.762 885.743 221.982L886.67 223.373L888.06 221.982C895.475 207.152 928.377 172.858 939.499 166.37H939.962V164.979C931.158 155.247 908.914 113.537 905.67 96.8532L904.743 95.4629H904.28Z" fill="#FEBE00"/>
</svg>
