<svg width="1309" height="1218" viewBox="0 0 1309 1218" fill="none" xmlns="http://www.w3.org/2000/svg">
<path d="M848.713 203.931L1008.41 240.134C1012.69 241.051 1015.89 243.8 1016.96 247.467L1059.16 384.49C1060.22 388.614 1064.5 391.364 1069.3 391.364C1074.11 391.364 1078.38 388.614 1079.45 384.49L1121.65 247.467C1122.72 243.8 1125.92 241.051 1130.19 240.134L1289.89 203.931C1294.7 203.014 1297.91 199.806 1297.91 195.682C1297.91 191.557 1294.7 187.892 1289.89 187.433L1130.19 151.229C1125.92 150.313 1122.72 147.564 1121.65 143.898L1079.45 6.87448C1078.38 2.75004 1074.11 0 1069.3 0C1064.5 0 1060.22 2.75004 1059.16 6.87448L1016.96 143.898C1015.89 147.564 1012.69 150.313 1008.41 151.229L848.713 187.433C843.906 188.35 840.701 191.557 840.701 195.682C840.701 199.806 843.906 203.473 848.713 203.931Z" fill="#FEBE00"/>
<path d="M1012.15 776.311L939.513 759.813C939.513 759.813 936.308 757.98 935.774 756.605L916.546 694.28C916.546 694.28 914.41 691.072 911.739 691.072C909.068 691.072 907.466 692.447 906.932 694.28L887.704 756.605C887.704 756.605 885.567 759.355 883.965 759.813L811.325 776.311C811.325 776.311 807.586 778.144 807.586 779.977C807.586 781.81 809.188 783.643 811.325 783.643L883.965 800.141C883.965 800.141 887.169 801.974 887.704 803.349L906.932 865.674C906.932 865.674 909.068 868.882 911.739 868.882C914.41 868.882 916.012 867.507 916.546 865.674L935.774 803.349C935.774 803.349 937.911 800.141 939.513 800.141L1012.15 783.643C1012.15 783.643 1015.89 781.81 1015.89 779.977C1015.89 778.144 1014.29 776.311 1012.15 776.311Z" fill="#FEBE00"/>
<path d="M48.6043 332.704L162.905 358.825C166.11 359.283 168.247 361.575 168.781 363.866L198.691 461.936C199.76 464.686 202.43 466.977 205.635 466.977C208.84 466.977 212.044 465.144 212.578 461.936L242.489 363.866C243.023 361.117 245.694 359.283 248.364 358.825L362.666 332.704C365.87 332.246 368.541 329.496 368.541 326.746C368.541 323.997 366.404 321.247 362.666 320.789L248.364 294.668C245.16 294.209 243.023 291.918 242.489 289.627L212.578 191.557C211.51 188.807 208.84 186.516 205.635 186.516C202.43 186.516 199.225 188.349 198.691 191.557L168.781 289.627C168.247 292.376 165.576 294.209 162.905 294.668L48.6043 320.789C45.3996 321.247 42.729 323.997 42.729 326.746C42.729 329.496 44.8655 332.246 48.6043 332.704Z" fill="#FEBE00"/>
<path d="M1043.67 658.076C1021.77 636.079 990.789 616.832 952.332 600.335C875.419 567.797 770.198 547.634 653.76 547.634C577.381 547.634 505.81 556.34 443.852 571.463C381.894 586.586 329.551 608.125 292.163 634.247C267.059 651.661 248.365 671.366 238.217 692.447C232.341 704.362 229.137 717.194 229.137 730.025C229.137 740.566 239.285 749.273 251.57 749.273C263.854 749.273 274.003 740.566 274.003 730.025C274.003 722.235 275.605 714.902 279.344 707.112C285.753 693.364 299.106 678.241 319.937 664.034C350.916 642.037 397.918 622.332 455.603 608.125C513.287 593.919 581.12 585.67 653.226 585.67H654.294C764.323 585.67 863.668 604.918 932.036 634.247C966.219 648.912 992.925 665.868 1009.48 682.365C1018.03 690.614 1023.9 698.863 1027.64 706.654C1032.45 716.277 1045.27 721.318 1057.02 717.194C1068.24 713.069 1074.11 702.071 1069.3 691.989C1063.43 680.074 1054.88 668.159 1044.2 657.16L1043.67 658.076Z" fill="#FEBE00"/>
<path d="M1291.5 646.62C1281.88 626.914 1269.06 609.042 1253.57 592.086C1238.08 575.13 1219.92 560.007 1199.63 545.801C1138.74 503.181 1058.62 470.645 965.685 448.189C872.748 425.734 766.993 412.902 654.294 412.902C568.301 412.902 486.581 420.234 411.271 433.982C335.96 447.272 267.593 466.978 208.306 492.183C149.019 517.388 98.8118 548.092 61.4235 585.212C42.7294 604.001 27.24 624.623 16.5576 646.62C5.87529 669.075 0 692.905 0 717.652V912.417C0 937.164 5.87529 961.452 16.5576 983.449C26.1718 1003.15 38.9906 1021.03 54.48 1037.98C69.9694 1054.94 88.1294 1070.06 108.426 1084.27C169.315 1126.89 249.433 1159.43 342.369 1181.88C435.306 1204.34 541.061 1217.17 653.76 1217.17C739.753 1217.17 821.473 1209.84 896.784 1196.09C972.094 1182.8 1040.46 1163.09 1099.75 1137.89C1159.04 1112.68 1209.24 1081.98 1246.63 1044.86C1265.32 1026.07 1280.81 1005.45 1291.5 983.449C1302.18 960.994 1308.05 937.164 1308.05 912.417V717.652C1308.05 692.905 1302.18 668.617 1291.5 646.62ZM145.814 1014.15C138.871 1008.65 132.461 1003.16 126.586 997.198C113.233 983.449 103.085 969.701 96.1412 955.495C89.1976 941.288 85.993 927.082 85.993 912.876V824.429C99.3459 838.636 114.835 851.925 132.461 864.299C136.734 867.048 141.007 870.256 145.814 873.006V1014.15ZM271.332 1081.98C262.786 1078.77 254.24 1075.56 246.228 1071.9C227 1063.65 209.908 1055.4 193.885 1046.23V899.586C217.92 911.501 243.558 922.041 271.332 931.664V1081.98ZM426.76 1123.68C387.235 1116.35 350.381 1107.64 316.198 1097.1H318.868V946.329C329.551 949.537 341.301 952.287 352.518 955.037C376.019 960.994 401.122 966.035 426.226 970.16V1123.22L426.76 1123.68ZM629.725 1142.93C575.779 1142.01 523.435 1137.89 474.296 1131.01V977.95C523.969 984.366 575.779 988.491 629.725 989.407V1143.39V1142.93ZM839.099 1130.1C788.358 1137.43 733.878 1142.01 677.795 1142.93V989.407C733.878 988.491 787.824 984.366 839.099 977.492V1130.55V1130.1ZM994.527 1096.18C977.435 1101.23 960.344 1106.27 941.649 1110.85C924.024 1114.97 905.864 1119.1 886.635 1122.31V969.701C924.558 962.827 960.344 954.578 993.993 944.955V1096.18H994.527ZM1120.04 1042.57C1097.61 1055.86 1071.44 1068.23 1042.6 1079.69V929.374C1056.48 924.333 1070.37 919.291 1083.19 913.792C1096.01 908.293 1108.29 902.336 1120.58 896.378V1042.57H1120.04ZM1221.53 912.417C1221.53 927.082 1218.32 941.289 1211.38 955.037C1202.83 973.368 1187.88 991.24 1167.58 1008.65V870.256H1164.91C1184.67 857.425 1202.3 843.218 1217.25 828.554C1218.86 827.179 1220.46 825.346 1221.53 823.971V912.417ZM1211.38 760.272C1199.63 785.018 1177.2 809.307 1144.61 831.762C1096.01 865.674 1026.04 895.003 941.649 915.625C857.259 936.248 758.981 948.162 653.76 948.162C493.525 948.162 348.779 920.208 246.228 876.672C194.953 854.675 154.36 829.012 127.12 801.974C113.767 788.226 103.619 774.478 96.6753 760.272C89.7318 746.065 86.5271 731.859 86.5271 717.652C86.5271 703.446 89.7318 688.781 96.6753 675.033C108.426 650.287 130.859 625.998 163.44 603.543C212.045 569.631 282.014 540.302 366.405 519.68C450.795 499.057 549.073 487.142 654.294 487.142C814.529 487.142 959.275 515.096 1061.83 558.632C1113.1 580.629 1153.69 606.292 1180.93 633.33C1194.29 647.079 1204.44 660.827 1211.38 675.033C1218.32 689.24 1221.53 703.446 1221.53 717.652C1221.53 731.859 1218.32 746.524 1211.38 760.272Z" fill="#FEBE00"/>
</svg>
