<svg width="1323" height="1323" viewBox="0 0 1323 1323" fill="none" xmlns="http://www.w3.org/2000/svg">
<path d="M1272.63 673.825V766.656C1272.63 1004.83 1272.63 1124.19 1201.02 1198.45C1129.42 1272.72 1014.31 1272.72 783.579 1272.72H539.052C308.848 1272.72 193.215 1272.72 121.607 1198.45C50 1124.19 50 1005.37 50 766.656V673.825C50 533.783 50 464.292 81.8255 405.941C113.651 348.121 171.467 312.049 287.631 239.906L409.629 164.05C532.157 88.1934 593.686 50 661.05 50C728.414 50 789.944 88.1934 912.472 164.05L1034.47 239.906C1150.63 312.049 1208.45 347.59 1240.28 405.941" stroke="#FEBE00" strokeWidth="100" stroke-miterlimit="10"/>
<path d="M844.577 1028.17H478.053" stroke="#FEBE00" strokeWidth="100" stroke-miterlimit="10"/>
</svg>
