<svg width="1148" height="1273" viewBox="0 0 1148 1273" fill="none" xmlns="http://www.w3.org/2000/svg">
<path d="M70.2694 554.546C70.2694 554.546 578.116 274.933 754.191 176.702C821.849 137.165 1050.5 11.2175 1050.5 11.2175C1050.5 11.2175 1156.07 -43.8085 1147.51 89.8836C1144.65 144.909 1121.01 337.704 1097.78 546.394C1062.73 841.495 1024.42 1164.31 1024.42 1164.31C1024.42 1164.31 1018.71 1254.8 968.578 1270.69C918.853 1286.59 836.522 1215.67 821.849 1199.77C810.029 1187.95 601.755 1011.05 525.538 924.236C505.158 900.595 481.519 853.315 528.391 798.289C633.954 668.265 760.304 506.855 836.522 404.548C871.574 357.267 907.033 247.217 760.304 380.909C552.03 573.703 346.202 754.676 346.202 754.676C346.202 754.676 299.33 794.212 211.292 758.751C123.255 723.29 20.5445 676.01 20.5445 676.01C20.5445 676.01 -49.967 616.908 70.2694 554.138V554.546Z" fill="#FEBE00"/>
</svg>
