<svg width="1137" height="909" viewBox="0 0 1137 909" fill="none" xmlns="http://www.w3.org/2000/svg">
<path d="M411.972 5.01541C404.283 7.78405 375.372 23.1654 347.384 39.4696C267.418 85.6137 125.017 167.75 83.8039 191.437C24.7521 225.276 9.98911 241.888 2.30007 282.803C-0.775544 299.107 -0.467983 303.414 5.68325 321.564C9.37398 333.254 32.7487 377.86 59.5065 424.311C85.3417 469.225 122.557 533.826 141.933 567.665C161.309 601.504 204.675 676.873 238.2 735.322C271.724 793.771 302.48 847.298 306.478 854.374C316.628 872.216 336.004 890.059 356.303 900.21C370.759 907.593 377.217 908.824 396.901 908.516C412.895 908.516 424.274 906.363 433.809 902.364C448.879 895.596 775.202 705.79 795.501 691.639C820.721 674.72 833.023 651.648 835.484 617.193C836.714 600.274 835.792 591.968 831.178 579.971C824.719 562.743 538.995 66.2332 521.464 41.623C497.474 7.78405 449.187 -8.52018 411.972 5.01541ZM414.125 300.337C533.151 332.023 551.912 338.176 565.753 349.865C591.28 372.015 602.66 411.083 592.203 442.461C585.437 462.457 564.215 486.452 544.838 495.681C528.845 503.371 497.474 504.91 482.096 498.757C477.175 496.911 473.484 496.296 473.484 497.526C473.484 499.065 497.782 544.286 500.242 547.362C500.857 548.285 507.624 545.824 515.005 542.132C522.694 538.441 533.151 535.365 538.072 535.365C554.373 535.365 565.753 559.36 555.603 572.895C546.684 584.585 459.644 633.805 447.957 633.805C439.037 633.805 424.274 618.116 424.274 608.58C424.274 602.427 437.807 587.046 451.032 578.432L458.106 573.818L443.036 547.977L428.273 522.444L422.737 539.671C415.97 561.513 398.439 581.509 377.525 591.968C364.607 598.428 357.226 599.966 339.08 599.966C303.71 599.966 277.875 583.662 260.959 550.746C248.657 527.059 250.81 509.216 277.875 406.161C290.793 356.326 303.095 311.72 304.941 306.798C310.169 293.262 324.624 283.11 338.157 283.11C344.616 283.11 378.755 290.801 414.125 300.337Z" fill="#9FA0A3"/>
<path d="M633.416 115.146C633.416 116.069 646.026 138.525 661.712 165.289C714.305 256.039 790.58 388.319 853.938 498.449C891.153 563.051 900.072 597.813 890.537 642.419C883.771 674.104 873.929 694.1 853.63 715.942C832.408 739.014 830.871 739.937 692.468 819.92C630.648 855.604 580.516 886.059 580.208 887.598C580.208 893.135 607.273 904.825 627.572 907.901C639.875 909.747 725.377 910.67 853.323 910.054L1059.39 909.131L1078.15 900.518C1108.6 886.367 1127.97 862.064 1134.74 829.148C1136.89 818.689 1137.82 713.173 1137.2 501.218L1136.28 189.284L1126.13 168.673C1114.13 144.37 1097.53 128.989 1074.15 120.068C1058.16 114.223 1050.47 113.915 845.634 113.915C728.76 113.915 633.416 114.531 633.416 115.146ZM911.144 232.659C916.68 235.428 924.677 241.273 929.29 245.58C937.287 252.963 937.902 252.963 944.668 248.041C972.964 227.43 972.349 227.737 991.11 227.737C1016.64 227.737 1032.94 237.274 1043.7 259.115C1056.01 283.418 1053.85 305.259 1036.94 330.177C1033.86 334.792 1012.02 357.864 988.957 381.551C955.433 415.39 944.668 424.619 938.21 424.619C932.058 424.619 924.062 418.466 905.3 399.086C827.487 319.41 822.259 311.72 825.334 283.725C828.41 258.5 838.252 243.734 859.474 232.659C871.469 226.199 898.534 226.507 911.144 232.659Z" fill="#9FA0A3"/>
</svg>
