<svg width="1544" height="1544" viewBox="0 0 1544 1544" fill="none" xmlns="http://www.w3.org/2000/svg">
<path fillRule="evenodd" clipRule="evenodd" d="M182.725 366.662C166.135 268.064 258.564 186.057 356.207 212.128L430.15 232.037C488.925 247.68 551.018 223.979 583.724 173.258L654.823 63.2828C709.333 -21.0943 834.467 -21.0943 888.976 63.2828L960.076 173.258C992.781 223.979 1054.87 247.68 1113.65 232.037L1187.59 212.128C1285.24 186.057 1377.66 268.064 1361.07 366.662L1343.06 474.739C1333.58 530.201 1359.65 585.662 1408.47 614.578L1476.26 654.398C1566.31 707.489 1566.31 835.948 1476.26 889.04L1408.47 928.859C1359.65 957.775 1333.58 1013.24 1343.06 1068.7L1361.07 1176.78C1377.66 1275.37 1285.24 1357.38 1187.59 1331.31L1113.65 1311.4C1054.87 1295.76 992.781 1319.46 960.076 1370.18L888.976 1480.15C834.467 1564.53 709.333 1564.53 654.823 1480.15L583.724 1370.18C551.018 1319.46 488.925 1295.76 430.15 1311.4L356.207 1331.31C258.564 1357.38 166.135 1275.37 182.725 1176.78L200.737 1068.7C210.217 1013.24 184.147 957.775 135.325 928.859L67.5442 889.04C-22.5147 835.948 -22.5147 707.489 67.5442 654.398L135.325 614.578C184.147 585.662 210.217 530.201 200.737 474.739L182.725 366.662ZM563.816 360.974H355.733V566.226L147.649 771.481L355.733 976.737V1181.99H563.816L771.9 1387.24L979.983 1181.99H1188.07V976.737L1396.15 771.481L1188.07 566.226V360.974H979.983L771.9 155.719L563.816 360.974Z" fill="#9FA0A3"/>
<path d="M1084.26 771.483C1084.26 941.659 944.434 1079.6 771.9 1079.6C599.366 1079.6 459.538 941.659 459.538 771.483C459.538 601.307 599.366 463.364 771.9 463.364C944.434 463.364 1084.26 601.307 1084.26 771.483ZM597.944 771.483C597.944 866.288 675.68 942.606 771.9 942.606C868.121 942.606 945.856 865.814 945.856 771.483C945.856 677.151 868.121 600.359 771.9 600.359C675.68 600.359 597.944 677.151 597.944 771.483Z" fill="#9FA0A3"/>
</svg>
