<svg width="3722" height="684" viewBox="0 0 3722 684" fill="none" xmlns="http://www.w3.org/2000/svg">
<rect x="1.5" y="1.5" width="3719" height="681" rx="58.5" fill="#202633" stroke="#353843" strokeWidth="3"/>
<mask id="mask0_41_4" style="mask-type:alpha" maskUnits="userSpaceOnUse" x="3" y="3" width="3716" height="678">
<rect x="3" y="3" width="3716" height="678" rx="58" fill="#202633"/>
</mask>
<g mask="url(#mask0_41_4)">
<g filter="url(#filter0_d_41_4)">
<path d="M2339.17 244.704C2710.5 133.5 2789 3 2789 3H-111.493L-25.1935 760.885L623.235 676.391C1015.19 613.197 1207 642 1572 514.5C1937 387 1967.85 355.908 2339.17 244.704Z" fill="#FFA843"/>
<path d="M2339.17 244.704C2710.5 133.5 2789 3 2789 3H-111.493L-25.1935 760.885L623.235 676.391C1015.19 613.197 1207 642 1572 514.5C1937 387 1967.85 355.908 2339.17 244.704Z" stroke="#353843"/>
</g>
</g>
<defs>
<filter id="filter0_d_41_4" x="-115.853" y="2.5" width="2909.53" height="766.747" filterUnits="userSpaceOnUse" colorInterpolationFilters="sRGB">
<feFlood floodOpacity="0" result="BackgroundImageFix"/>
<feColorMatrix in="SourceAlpha" type="matrix" values="0 0 0 0 0 0 0 0 0 0 0 0 0 0 0 0 0 0 127 0" result="hardAlpha"/>
<feOffset dy="4"/>
<feGaussianBlur stdDeviation="1.9"/>
<feComposite in2="hardAlpha" operator="out"/>
<feColorMatrix type="matrix" values="0 0 0 0 0 0 0 0 0 0 0 0 0 0 0 0 0 0 0.25 0"/>
<feBlend mode="normal" in2="BackgroundImageFix" result="effect1_dropShadow_41_4"/>
<feBlend mode="normal" in="SourceGraphic" in2="effect1_dropShadow_41_4" result="shape"/>
</filter>
</defs>
</svg>
