<svg width="140" height="117" viewBox="0 0 140 117" fill="none" xmlns="http://www.w3.org/2000/svg">
<path d="M16.6812 84.515C11.1661 87.7541 7.63475 84.0945 5.02588 79.1611C1.33601 72.1816 3.13375 54.9136 6.83865 49.0016C10.2388 43.5758 15.2553 41.1682 19.6075 43.7517" fill="#DB841E"/>
<path d="M16.6812 84.515C11.1661 87.7541 7.63475 84.0945 5.02588 79.1611C1.33601 72.1816 3.13375 54.9136 6.83865 49.0016C10.2388 43.5758 15.2553 41.1682 19.6075 43.7517" stroke="#20212D" strokeWidth="4.99999" strokeLinecap="round" strokeLinejoin="round"/>
<path d="M52.9605 3.61906C45.7431 0.100228 41.2666 12.1515 38.7387 25.3625C37.757 30.4924 19.878 40.5787 15.6055 52.5712C12.8256 60.3733 12.1429 78.0598 16.8937 84.2899C25.0287 94.9569 35.5158 100.352 48.4809 102.79C53.0767 103.654 58.3259 103.874 62.6164 103.622C76.7059 102.794 110.928 114.878 114.539 113.949C124.572 111.369 118.693 100.153 112.243 97.815C109.119 96.6825 87.2092 85.7721 91.4034 85.7078C101.707 85.5495 114.128 86.5568 125.801 88.155C143.269 90.5465 138.866 66.999 122.486 64.9218C114.813 63.9485 108.525 62.2652 91.3473 60.4813C100.598 57.747 113.886 53.1533 123.071 51.6116C138.219 49.0689 129.139 28.0951 110.686 31.5795C98.1198 33.9526 75.9623 40.6195 54.1273 39.5768C61.2017 31.3853 74.7318 14.2325 52.9625 3.61843L52.9605 3.61906Z" fill="#DB841E" stroke="#20212D" strokeWidth="4.99999" strokeLinecap="round" strokeLinejoin="round"/>
<path d="M91.7244 58.5318C80.3266 61.1713 75.1016 65.0432 72.4414 66.4841C79.5414 64.6411 81.2913 63.9915 89.0192 62.5781C90.3294 62.3385 91.8982 62.2681 93.8127 62.477L91.7244 58.5318Z" fill="#20212D"/>
<path d="M91.3373 83.9448C84.4658 84.055 76.2071 85.78 71.0514 88.2657C74.8017 88.1518 81.2448 87.9019 86.9414 87.6211C88.4866 87.5449 89.8856 87.8416 91.6866 89.0647C91.1993 87.3902 91.3408 85.6651 91.3373 83.9448Z" fill="#20212D"/>
<path d="M23.5229 75.9721C32.2356 79.4808 34.7443 79.4279 39.1915 80.4874" stroke="#20212D" strokeWidth="4.99999" strokeLinecap="round" strokeLinejoin="round"/>
<path d="M22.8927 67.8178C33.2228 69.2886 38.3334 69.0556 45.3066 69.4305" stroke="#20212D" strokeWidth="4.99999" strokeLinecap="round" strokeLinejoin="round"/>
<path d="M22.4428 58.0668C29.6272 58.1512 33.0241 57.5463 37.5946 57.1551" stroke="#20212D" strokeWidth="4.99999" strokeLinecap="round" strokeLinejoin="round"/>
</svg>
