<svg width="140" height="117" viewBox="0 0 140 117" fill="none" xmlns="http://www.w3.org/2000/svg">
<path d="M123.319 84.515C128.834 87.7541 132.365 84.0945 134.974 79.1611C138.664 72.1816 136.866 54.9136 133.161 49.0016C129.761 43.5758 124.745 41.1682 120.392 43.7517" fill="#DB841E"/>
<path d="M123.319 84.515C128.834 87.7541 132.365 84.0945 134.974 79.1611C138.664 72.1816 136.866 54.9136 133.161 49.0016C129.761 43.5758 124.745 41.1682 120.392 43.7517" stroke="#20212D" strokeWidth="4.99999" strokeLinecap="round" strokeLinejoin="round"/>
<path d="M87.0395 3.61906C94.2569 0.100227 98.7334 12.1515 101.261 25.3625C102.243 30.4924 120.122 40.5787 124.395 52.5712C127.174 60.3733 127.857 78.0598 123.106 84.2899C114.971 94.9569 104.484 100.352 91.5191 102.79C86.9233 103.654 81.6741 103.874 77.3836 103.622C63.2941 102.794 29.0719 114.878 25.461 113.949C15.428 111.369 21.3071 100.153 27.7572 97.815C30.8813 96.6825 52.7908 85.7721 48.5966 85.7078C38.2934 85.5495 25.872 86.5568 14.1987 88.155C-3.26933 90.5465 1.13371 66.999 17.5137 64.9218C25.1872 63.9485 31.4754 62.2652 48.6527 60.4813C39.4019 57.747 26.1145 53.1533 16.9285 51.6116C1.78122 49.0689 10.8614 28.0951 29.3139 31.5795C41.8803 33.9526 64.0377 40.6195 85.8728 39.5768C78.7983 31.3853 65.2682 14.2325 87.0375 3.61842L87.0395 3.61906Z" fill="#DB841E" stroke="#20212D" strokeWidth="4.99999" strokeLinecap="round" strokeLinejoin="round"/>
<path d="M48.2756 58.5318C59.6734 61.1713 64.8984 65.0432 67.5586 66.4841C60.4586 64.6411 58.7087 63.9915 50.9808 62.5781C49.6706 62.3385 48.1018 62.2681 46.1873 62.477L48.2756 58.5318Z" fill="#20212D"/>
<path d="M48.6626 83.9448C55.5341 84.055 63.7929 85.78 68.9485 88.2657C65.1982 88.1518 58.7552 87.9019 53.0585 87.6211C51.5134 87.5449 50.1144 87.8416 48.3133 89.0647C48.8007 87.3902 48.6592 85.6651 48.6626 83.9448Z" fill="#20212D"/>
<path d="M116.477 75.9721C107.764 79.4808 105.256 79.4279 100.809 80.4874" stroke="#20212D" strokeWidth="4.99999" strokeLinecap="round" strokeLinejoin="round"/>
<path d="M117.107 67.8178C106.777 69.2886 101.667 69.0556 94.6934 69.4305" stroke="#20212D" strokeWidth="4.99999" strokeLinecap="round" strokeLinejoin="round"/>
<path d="M117.557 58.0668C110.373 58.1512 106.976 57.5463 102.405 57.1551" stroke="#20212D" strokeWidth="4.99999" strokeLinecap="round" strokeLinejoin="round"/>
</svg>
