<svg width="140" height="117" viewBox="0 0 140 117" fill="none" xmlns="http://www.w3.org/2000/svg">
<path d="M21.6315 86.7471C14.1212 91.3241 9.32413 86.1451 5.75891 79.166C0.718426 69.2924 3.19401 44.8715 8.24497 36.5132C12.9263 28.8419 19.6976 25.4408 25.7263 29.0975" fill="#DB841E"/>
<path d="M21.6315 86.7471C14.1212 91.3241 9.32413 86.1451 5.75891 79.166C0.718426 69.2924 3.19401 44.8715 8.24497 36.5132C12.9263 28.8419 19.6976 25.4408 25.7263 29.0975" stroke="#20212D" strokeWidth="4.99983" strokeLinecap="round" strokeLinejoin="round"/>
<path d="M76.9413 3.0477C57.6188 1.98314 27.3315 20.0968 20.1807 41.5685C16.6051 52.6566 15.4831 77.6141 22.0011 86.429C33.0693 101.528 47.4649 109.157 65.186 112.622C71.4623 113.842 78.6006 114.154 84.5085 113.8C108.651 112.555 126.615 104.952 123.822 88.4936C143.608 83.4791 138.884 52.9703 123.768 52.8153C141.306 37.2572 124.968 14.6018 104.019 23.8999C101.301 20.4491 97.0022 4.1594 76.9413 3.0477Z" fill="#DB841E" stroke="#20212D" strokeWidth="4.99983" strokeLinecap="round" strokeLinejoin="round"/>
<path d="M123.053 55.3729C107.774 60.1941 101.418 58.2556 97.2024 58.4097C106.901 55.6254 109.432 55.1779 119.513 51.4551C121.227 50.8199 122.962 49.9851 124.879 48.1179L125.983 55.6385C126.353 55.6905 124.18 55.198 123.053 55.3729Z" fill="#20212D"/>
<path d="M125.728 90.4873C116.508 92.3399 104.963 93.574 97.3347 91.6397C102.419 90.6954 115.402 87.3816 123.087 86.1131C123.084 86.0973 123.072 86.1283 125.728 90.4873Z" fill="#20212D"/>
<path d="M30.9923 74.6704C42.928 79.6384 46.3742 79.5667 52.4041 81.0686" stroke="#20212D" strokeWidth="4.99983" strokeLinecap="round" strokeLinejoin="round"/>
<path d="M30.1374 63.1374C44.2901 65.2266 51.3057 64.9012 60.7823 65.4364" stroke="#20212D" strokeWidth="4.99983" strokeLinecap="round" strokeLinejoin="round"/>
<path d="M29.53 49.3471C39.3761 49.4733 44.0536 48.6199 50.2078 48.07" stroke="#20212D" strokeWidth="4.99983" strokeLinecap="round" strokeLinejoin="round"/>
<path d="M105.214 21.0979C84.5589 25.8702 76.4394 19.6051 65.9803 15.4369C76.8074 21.7675 80.4948 30.3681 104.633 26.3267L105.214 21.0979Z" fill="#20212D"/>
</svg>
