<svg width="140" height="117" viewBox="0 0 140 117" fill="none" xmlns="http://www.w3.org/2000/svg">
<path d="M118.351 86.7774C125.862 91.3544 130.659 86.1754 134.224 79.1962C139.264 69.3227 136.789 44.9018 131.738 36.5435C127.057 28.8721 120.285 25.4711 114.257 29.1278" fill="#DB841E"/>
<path d="M118.351 86.7774C125.862 91.3544 130.659 86.1754 134.224 79.1962C139.264 69.3227 136.789 44.9018 131.738 36.5435C127.057 28.8721 120.285 25.4711 114.257 29.1278" stroke="#20212D" strokeWidth="4.99983" strokeLinecap="round" strokeLinejoin="round"/>
<path d="M63.0415 3.07799C82.3639 2.01343 112.651 20.1271 119.802 41.5988C123.378 52.6868 124.5 77.6444 117.982 86.4593C106.913 101.558 92.5178 109.188 74.7967 112.652C68.5205 113.872 61.3822 114.184 55.4743 113.831C31.332 112.586 13.3683 104.982 16.1613 88.5239C-3.62501 83.5094 1.09839 53.0005 16.2146 52.8456C-1.32295 37.2875 15.015 14.6321 35.9642 23.9302C38.6822 20.4794 42.9805 4.18968 63.0415 3.07799Z" fill="#DB841E" stroke="#20212D" strokeWidth="4.99983" strokeLinecap="round" strokeLinejoin="round"/>
<path d="M16.9299 55.4031C32.209 60.2244 38.5649 58.2859 42.7803 58.44C33.0821 55.6557 30.551 55.2082 20.4698 51.4854C18.7555 50.8501 17.0205 50.0154 15.1043 48.1482L13.9997 55.6687C13.6296 55.7208 15.8028 55.2283 16.9299 55.4031Z" fill="#20212D"/>
<path d="M14.2549 90.5176C23.4744 92.3702 35.0197 93.6043 42.6481 91.67C37.5635 90.7257 24.5805 87.4119 16.8961 86.1433C16.8985 86.1275 16.9108 86.1586 14.2549 90.5176Z" fill="#20212D"/>
<path d="M108.991 74.7007C97.0549 79.6687 93.6087 79.597 87.5787 81.0989" stroke="#20212D" strokeWidth="4.99983" strokeLinecap="round" strokeLinejoin="round"/>
<path d="M109.845 63.1677C95.6927 65.2569 88.6771 64.9315 79.2005 65.4667" stroke="#20212D" strokeWidth="4.99983" strokeLinecap="round" strokeLinejoin="round"/>
<path d="M110.453 49.3774C100.607 49.5036 95.9292 48.6502 89.775 48.1003" stroke="#20212D" strokeWidth="4.99983" strokeLinecap="round" strokeLinejoin="round"/>
<path d="M34.7689 21.1282C55.4239 25.9005 63.5434 19.6354 74.0026 15.4672C63.1754 21.7978 59.488 30.3984 35.3503 26.357L34.7689 21.1282Z" fill="#20212D"/>
</svg>
