<svg width="152" height="106" viewBox="0 0 152 106" fill="none" xmlns="http://www.w3.org/2000/svg">
<path d="M133.776 30.2746C139.905 25.8829 143.824 30.8449 146.738 37.5331C150.858 46.9952 148.848 70.4064 144.728 78.4214C140.91 85.7778 135.384 89.0418 130.46 85.5398" fill="#DB841E"/>
<path d="M133.776 30.2746C139.905 25.8829 143.824 30.8449 146.738 37.5331C150.858 46.9952 148.848 70.4064 144.728 78.4214C140.91 85.7778 135.384 89.0418 130.46 85.5398" stroke="#20212D" strokeWidth="4.99993" strokeLinecap="round" strokeLinejoin="round"/>
<path d="M91.7985 102.454C107.178 103.481 129.45 94.4481 135.131 73.513C137.972 62.7021 138.853 38.3722 133.662 29.783C124.846 15.0705 113.385 7.64118 99.2788 4.27401C94.283 3.08772 88.6014 2.78815 83.8995 3.13565C66.6943 4.68048 56.5831 20.9037 52.6218 27.8274C41.4056 28.0455 27.8876 26.6567 15.1825 24.453C-3.82119 21.1566 0.968918 53.6204 18.7971 56.4854C27.1431 57.8263 33.9903 60.1474 52.6805 62.6074C42.6105 66.376 28.152 72.7101 18.1604 74.8359C1.67419 78.3408 11.5581 107.258 31.6393 102.454C45.3142 99.1813 55.3841 93.982 68.4125 90.7838C70.5773 94.1461 75.8315 101.381 91.7985 102.454Z" fill="#DB841E" stroke="#20212D" strokeWidth="4.99993" strokeLinecap="round" strokeLinejoin="round"/>
<path d="M52.7689 65.6064C65.1066 61.8279 70.7589 56.2863 73.6825 54.2235C65.9642 56.8611 64.0638 57.7918 55.7023 59.8148C54.2794 60.1569 52.5837 60.2577 50.5079 59.9591L52.7689 65.6064Z" fill="#20212D"/>
<path d="M52.9672 30.0343C60.3848 29.89 69.2878 27.6174 74.8413 24.3431C66.8099 24.6935 60.4692 24.9796 52.8254 25.5238C52.8254 25.5479 52.9711 27.7689 52.9711 30.0346L52.9672 30.0343Z" fill="#20212D"/>
<path d="M126.984 41.4176C117.295 36.9958 114.498 37.0616 109.603 35.7261" stroke="#20212D" strokeWidth="4.99993" strokeLinecap="round" strokeLinejoin="round"/>
<path d="M126.984 52.8006C115.746 50.2048 110.176 50.6157 102.651 49.9548" stroke="#20212D" strokeWidth="4.99993" strokeLinecap="round" strokeLinejoin="round"/>
<path d="M128.143 65.619C120.418 65.4871 116.749 66.4237 111.921 67.0293" stroke="#20212D" strokeWidth="4.99993" strokeLinecap="round" strokeLinejoin="round"/>
<path d="M67.8889 93.6951C84.3561 88.5531 90.833 95.2819 99.1746 99.7554C90.5386 92.9579 87.5945 83.7163 68.3501 88.0748L67.8889 93.6951Z" fill="#20212D"/>
</svg>
