<svg width="140" height="106" viewBox="0 0 140 106" fill="none" xmlns="http://www.w3.org/2000/svg">
<path d="M16.9726 30.0636C11.3471 25.6719 7.7505 30.6339 5.07611 37.3222C1.29507 46.7842 3.13948 70.1955 6.92051 78.2105C10.4249 85.5669 15.4971 88.8309 20.0159 85.3289" fill="#DB841E"/>
<path d="M16.9726 30.0636C11.3471 25.6719 7.7505 30.6339 5.07611 37.3222C1.29507 46.7842 3.13948 70.1955 6.92051 78.2105C10.4249 85.5669 15.4971 88.8309 20.0159 85.3289" stroke="#20212D" strokeWidth="4.99993" strokeLinecap="round" strokeLinejoin="round"/>
<path d="M55.5 102.243C41.3848 103.27 20.9435 94.2372 15.729 73.302C13.1217 62.4912 12.3125 38.1613 17.0776 29.572C25.1691 14.8596 35.6881 7.43024 48.6345 4.06308C53.2197 2.87678 58.4343 2.57721 62.7498 2.92472C78.5409 4.46954 87.8209 20.6928 91.4567 27.6164C101.751 27.8345 114.158 26.4457 125.819 24.2421C143.261 20.9456 138.864 53.4094 122.501 56.2745C114.841 57.6154 108.557 59.9364 91.4028 62.3965C100.645 66.1651 113.915 72.4992 123.086 74.6249C138.217 78.1299 129.145 107.047 110.715 102.243C98.1637 98.9704 88.9214 93.771 76.9639 90.5728C74.977 93.9352 70.1547 101.17 55.5 102.243Z" fill="#DB841E" stroke="#20212D" strokeWidth="4.99993" strokeLinecap="round" strokeLinejoin="round"/>
<path d="M91.3217 65.3955C79.9981 61.617 74.8103 56.0754 72.127 54.0125C79.211 56.6502 80.9552 57.5808 88.6295 59.6039C89.9353 59.946 91.4917 60.0468 93.3969 59.7482L91.3217 65.3955Z" fill="#20212D"/>
<path d="M91.1397 29.8233C84.3318 29.6791 76.1605 27.4065 71.0635 24.1322C78.4348 24.4826 84.2543 24.7687 91.2698 25.3129C91.2698 25.3369 91.1362 27.558 91.1362 29.8237L91.1397 29.8233Z" fill="#20212D"/>
<path d="M23.2064 41.2066C32.0994 36.7849 34.6664 36.8506 39.1588 35.5151" stroke="#20212D" strokeWidth="4.99993" strokeLinecap="round" strokeLinejoin="round"/>
<path d="M23.2063 52.5896C33.5209 49.9938 38.6334 50.4047 45.5397 49.7439" stroke="#20212D" strokeWidth="4.99993" strokeLinecap="round" strokeLinejoin="round"/>
<path d="M22.1428 65.4081C29.2328 65.2762 32.6005 66.2128 37.0317 66.8184" stroke="#20212D" strokeWidth="4.99993" strokeLinecap="round" strokeLinejoin="round"/>
<path d="M77.4445 93.4842C62.3307 88.3422 56.3861 95.071 48.7302 99.5445C56.6563 92.747 59.3584 83.5053 77.0212 87.8639L77.4445 93.4842Z" fill="#20212D"/>
</svg>
