<svg xmlns="http://www.w3.org/2000/svg" width="28" height="27" viewBox="0 0 28 27" fill="none">
  <path d="M13.9086 26.2287C20.9385 26.2287 26.6374 20.5298 26.6374 13.4999C26.6374 6.4699 20.9385 0.770996 13.9086 0.770996C6.87859 0.770996 1.17969 6.4699 1.17969 13.4999C1.17969 20.5298 6.87859 26.2287 13.9086 26.2287Z" stroke="white" strokeWidth="1.4" strokeLinecap="round" strokeLinejoin="round"/>
  <path d="M17.7272 9.04473C16.8552 8.17282 15.3198 7.56634 13.9085 7.52837M13.9085 7.52837C12.2294 7.48318 10.7263 8.24279 10.7263 10.3176C10.7263 14.1363 17.7272 12.227 17.7272 16.0456C17.7272 18.2235 15.8639 19.1593 13.9085 19.0891M13.9085 7.52837V5.22607M10.0898 17.3185C10.9102 18.4123 12.4355 19.0361 13.9085 19.0891M13.9085 19.0891V21.7736" stroke="white" strokeWidth="1.4" strokeLinecap="round" strokeLinejoin="round"/>
</svg>