<svg xmlns="http://www.w3.org/2000/svg" width="44" height="44" viewBox="0 0 44 44" fill="none">
  <circle cx="22.25" cy="21.5806" r="21.5625" fill="url(#paint0_linear_237_299)"/>
  <path d="M20.2503 11.8832C21.4879 11.1687 23.0127 11.1687 24.2503 11.8832L29.6483 14.9998C30.8859 15.7143 31.6483 17.0348 31.6483 18.4639V24.697C31.6483 26.126 30.8859 27.4465 29.6483 28.1611L24.2503 31.2776C23.0127 31.9921 21.4879 31.9921 20.2503 31.2776L14.8523 28.1611C13.6147 27.4465 12.8523 26.126 12.8523 24.697V18.4639C12.8523 17.0348 13.6147 15.7143 14.8523 14.9998L20.2503 11.8832Z" fill="url(#paint1_linear_237_299)"/>
  <defs>
    <linearGradient id="paint0_linear_237_299" x1="22.25" y1="0.0180664" x2="22.25" y2="43.1431" gradientUnits="userSpaceOnUse">
      <stop stop-color="#FFAE50"/>
      <stop offset="1" stop-color="#DB841F"/>
    </linearGradient>
    <linearGradient id="paint1_linear_237_299" x1="22.2503" y1="10.7285" x2="22.2503" y2="32.4323" gradientUnits="userSpaceOnUse">
      <stop stop-color="white"/>
      <stop offset="1" stop-color="white" stop-opacity="0.63"/>
    </linearGradient>
  </defs>
</svg>