<svg xmlns="http://www.w3.org/2000/svg" width="38" height="37" viewBox="0 0 38 37" fill="none">
  <path fillRule="evenodd" clipRule="evenodd" d="M37.1263 18.6141C37.1263 23.4384 35.2101 28.0651 31.7993 31.4763C28.3884 34.8876 23.7623 36.8041 18.9386 36.8041C14.115 36.8041 9.48887 34.8876 6.07802 31.4763C2.66717 28.0651 0.750977 23.4384 0.750977 18.6141C0.750977 13.7898 2.66717 9.16309 6.07802 5.7518C9.48887 2.34051 14.115 0.424072 18.9386 0.424072C23.7623 0.424072 28.3884 2.34051 31.7993 5.7518C35.2101 9.16309 37.1263 13.7898 37.1263 18.6141ZM32.5794 18.6141C32.5794 20.8719 32.0315 23.0001 31.0607 24.876L27.596 21.4085C28.1148 19.8025 28.1762 18.0838 27.7733 16.4449L31.3244 12.8933C32.1292 14.6327 32.5794 16.5677 32.5794 18.6141ZM20.837 27.5113L24.429 31.1038C22.6989 31.8656 20.829 32.2582 18.9386 32.2566C16.9634 32.259 15.0114 31.8307 13.2186 31.0015L16.7698 27.4499C18.1035 27.7767 19.494 27.7977 20.837 27.5113ZM10.204 21.1539C9.75662 19.6132 9.72447 17.9816 10.1108 16.4244L9.92893 16.6063L6.45054 13.1207C5.68848 14.8517 5.2959 16.7227 5.29789 18.6141C5.29789 20.7832 5.80487 22.8342 6.70516 24.6554L10.204 21.1539ZM12.6775 6.48816C14.6128 5.48775 16.7602 4.96759 18.9386 4.97157C21.1075 4.97157 23.1582 5.47862 24.9792 6.37902L21.4781 9.8806C19.7327 9.37213 17.875 9.39827 16.1446 9.95563L12.6775 6.48816ZM23.4856 18.6141C23.4856 19.8201 23.0065 20.9768 22.1538 21.8296C21.3011 22.6825 20.1446 23.1616 18.9386 23.1616C17.7327 23.1616 16.5762 22.6825 15.7235 21.8296C14.8708 20.9768 14.3917 19.8201 14.3917 18.6141C14.3917 17.408 14.8708 16.2513 15.7235 15.3985C16.5762 14.5457 17.7327 14.0666 18.9386 14.0666C20.1446 14.0666 21.3011 14.5457 22.1538 15.3985C23.0065 16.2513 23.4856 17.408 23.4856 18.6141Z" fill="white"/>
</svg>