<svg xmlns="http://www.w3.org/2000/svg" width="21" height="23" viewBox="0 0 21 23" fill="none">
  <path d="M19.6601 11.4881V13.0428C19.6601 17.0319 19.6601 19.0309 18.5556 20.2747C17.451 21.5186 15.6755 21.5186 12.1164 21.5186H8.34452C4.79356 21.5186 3.0099 21.5186 1.90534 20.2747C0.800781 19.0309 0.800781 17.0408 0.800781 13.0428V11.4881C0.800781 9.1426 0.800781 7.97875 1.2917 7.00146C1.78261 6.03307 2.67444 5.42893 4.46629 4.22065L6.34813 2.95018C8.23816 1.67972 9.18726 1.04004 10.2264 1.04004C11.2655 1.04004 12.2146 1.67972 14.1046 2.95018L15.9864 4.22065C17.7783 5.42893 18.6701 6.02418 19.161 7.00146" stroke="white" strokeWidth="1.6" stroke-miterlimit="10" strokeLinecap="round"/>
  <path d="M13.057 17.4229H7.40332" stroke="white" strokeWidth="1.6" stroke-miterlimit="10" strokeLinecap="round"/>
</svg>