<svg xmlns="http://www.w3.org/2000/svg" width="44" height="44" viewBox="0 0 44 44" fill="none">
  <ellipse cx="21.874" cy="22.2501" rx="21.5625" ry="21.565" fill="url(#paint0_linear_176_583)"/>
  <path d="M19.8742 12.5517C21.1119 11.837 22.6368 11.837 23.8745 12.5517L29.2725 15.6686C30.51 16.3831 31.2724 17.7036 31.2724 19.1326V25.3672C31.2724 26.7962 30.51 28.1166 29.2725 28.8312L23.8745 31.9481C22.6368 32.6628 21.1119 32.6628 19.8742 31.9481L14.4762 28.8312C13.2387 28.1166 12.4763 26.7962 12.4763 25.3672V19.1326C12.4763 17.7036 13.2387 16.3831 14.4762 15.6686L19.8742 12.5517Z" fill="url(#paint1_linear_176_583)"/>
  <defs>
    <linearGradient id="paint0_linear_176_583" x1="21.874" y1="0.685059" x2="21.874" y2="43.8151" gradientUnits="userSpaceOnUse">
      <stop stop-color="#28B761"/>
      <stop offset="1" stop-color="#128E44"/>
    </linearGradient>
    <linearGradient id="paint1_linear_176_583" x1="21.8744" y1="11.3967" x2="21.8744" y2="33.103" gradientUnits="userSpaceOnUse">
      <stop stop-color="white"/>
      <stop offset="1" stop-color="white" stop-opacity="0.63"/>
    </linearGradient>
  </defs>
</svg>