<svg xmlns="http://www.w3.org/2000/svg" width="23" height="21" viewBox="0 0 23 21" fill="none">
  <path d="M13.4819 5.99278V3.69121C13.4819 3.0808 13.2394 2.49539 12.8077 2.06376C12.3761 1.63213 11.7907 1.38965 11.1803 1.38965H3.12481C2.51439 1.38965 1.92898 1.63213 1.49736 2.06376C1.06573 2.49539 0.823242 3.0808 0.823242 3.69121V17.5006C0.823242 18.111 1.06573 18.6964 1.49736 19.1281C1.92898 19.5597 2.51439 19.8022 3.12481 19.8022H11.1803C11.7907 19.8022 12.3761 19.5597 12.8077 19.1281C13.2394 18.6964 13.4819 18.111 13.4819 17.5006V15.199" stroke="white" strokeWidth="1.5" strokeLinecap="round" strokeLinejoin="round"/>
  <path d="M7.72754 10.5957H21.5369M21.5369 10.5957L18.0846 7.14331M21.5369 10.5957L18.0846 14.048" stroke="white" strokeWidth="1.5" strokeLinecap="round" strokeLinejoin="round"/>
</svg>