<svg xmlns="http://www.w3.org/2000/svg" width="36" height="36" viewBox="0 0 36 36" fill="none">
  <path d="M26.7486 2.46529C29.4013 3.99685 31.6041 6.1997 33.1356 8.85244C34.6671 11.5052 35.4734 14.5143 35.4734 17.5774C35.4734 20.6405 34.6671 23.6497 33.1355 26.3024C31.6039 28.9551 29.4011 31.1579 26.7484 32.6895C24.0957 34.221 21.0866 35.0272 18.0235 35.0272C14.9605 35.0271 11.9514 34.2208 9.29872 32.6892C6.64606 31.1576 4.4433 28.9547 2.91183 26.3019C1.38035 23.6492 0.574141 20.64 0.574219 17.5769L0.582944 17.0115C0.680667 13.9979 1.55759 11.061 3.12821 8.48723C4.69883 5.91343 6.90956 3.79053 9.54486 2.32549C12.1802 0.86045 15.1501 0.103272 18.1652 0.127774C21.1802 0.152275 24.1374 0.95762 26.7486 2.46529ZM18.0238 7.10696C17.561 7.10696 17.1172 7.29081 16.7899 7.61805C16.4627 7.9453 16.2788 8.38915 16.2788 8.85195C14.8905 8.85195 13.559 9.40349 12.5772 10.3852C11.5955 11.367 11.044 12.6985 11.044 14.0869C11.044 15.4753 11.5955 16.8068 12.5772 17.7886C13.559 18.7703 14.8905 19.3219 16.2788 19.3219V22.8118C15.9895 22.8273 15.7008 22.7721 15.4376 22.6511C15.1743 22.5301 14.9444 22.3469 14.7677 22.1173L14.6491 21.9411C14.4103 21.5561 14.0312 21.279 13.5918 21.1684C13.1525 21.0579 12.6874 21.1225 12.2949 21.3487C11.9023 21.5749 11.6132 21.9449 11.4885 22.3804C11.3638 22.816 11.4134 23.283 11.6268 23.6826C12.0722 24.455 12.7075 25.1009 13.4724 25.559C14.2374 26.0171 15.1067 26.2722 15.9979 26.3001H16.2788C16.2785 26.7278 16.4352 27.1407 16.7192 27.4605C17.0033 27.7802 17.3949 27.9845 17.8196 28.0346L18.0238 28.0468C18.4866 28.0468 18.9304 27.863 19.2577 27.5357C19.5849 27.2085 19.7688 26.7646 19.7688 26.3018L20.0759 26.2931C21.4363 26.2145 22.7124 25.6085 23.633 24.6039C24.5537 23.5993 25.0464 22.2753 25.0064 20.9132C24.9664 19.5512 24.3969 18.2583 23.4189 17.3095C22.4409 16.3607 21.1314 15.8306 19.7688 15.8319V12.3419C20.3935 12.321 20.9396 12.5862 21.2799 13.0364L21.3986 13.2127C21.6373 13.5977 22.0164 13.8748 22.4558 13.9853C22.8951 14.0959 23.3602 14.0312 23.7527 13.805C24.1453 13.5789 24.4345 13.2089 24.5591 12.7733C24.6838 12.3378 24.6342 11.8708 24.4208 11.4712C23.9757 10.6984 23.3405 10.0522 22.5755 9.59379C21.8105 9.1354 20.9411 8.88004 20.0497 8.85195H19.7688C19.7688 8.38915 19.5849 7.9453 19.2577 7.61805C18.9304 7.29081 18.4866 7.10696 18.0238 7.10696ZM19.7688 19.3219C20.2316 19.3219 20.6754 19.5057 21.0026 19.833C21.3299 20.1602 21.5137 20.6041 21.5137 21.0669C21.5137 21.5297 21.3299 21.9735 21.0026 22.3007C20.6754 22.628 20.2316 22.8118 19.7688 22.8118V19.3219ZM16.2788 12.3419V15.8319C15.8161 15.8319 15.3722 15.648 15.045 15.3208C14.7177 14.9936 14.5339 14.5497 14.5339 14.0869C14.5339 13.6241 14.7177 13.1803 15.045 12.853C15.3722 12.5258 15.8161 12.3419 16.2788 12.3419Z" fill="white"/>
</svg>