<svg xmlns="http://www.w3.org/2000/svg" width="33" height="34" viewBox="0 0 33 34" fill="none">
  <path fillRule="evenodd" clipRule="evenodd" d="M16.6618 0.0205078H16.491C15.0149 0.0205078 13.785 0.0205079 12.8096 0.151335C11.7784 0.288704 10.8474 0.592879 10.1003 1.33696C9.35155 2.08268 9.04613 3.00992 8.9082 4.03528C8.81461 4.73357 8.78669 6.39999 8.78012 7.82928C5.45996 7.93885 3.46491 8.32479 2.08069 9.70502C0.15625 11.62 0.15625 14.7043 0.15625 20.8712C0.15625 27.038 0.15625 30.1223 2.08069 32.0373C4.0035 33.9539 7.10034 33.9539 13.2924 33.9539H19.8605C26.0525 33.9539 29.1493 33.9539 31.0721 32.0373C32.9966 30.1223 32.9966 27.038 32.9966 20.8712C32.9966 14.7043 32.9966 11.62 31.0721 9.70502C29.6879 8.32479 27.6929 7.93885 24.3727 7.83092C24.3661 6.39999 24.3399 4.73357 24.2446 4.03692C24.1067 3.00992 23.8013 2.08268 23.0525 1.3386C22.3054 0.592879 21.3744 0.288704 20.3432 0.151335C19.3678 0.0205079 18.1363 0.0205078 16.6618 0.0205078ZM21.9097 7.79167C21.9015 6.40653 21.8785 4.91673 21.8046 4.36235C21.7012 3.60845 21.5255 3.28466 21.312 3.07206C21.0985 2.85947 20.7734 2.68448 20.0148 2.58146C19.2234 2.4768 18.1593 2.47353 16.5764 2.47353C14.9935 2.47353 13.9295 2.4768 13.1364 2.58309C12.3794 2.68448 12.0543 2.85947 11.8408 3.0737C11.6274 3.28629 11.4517 3.60845 11.3482 4.36235C11.2743 4.91837 11.2497 6.40653 11.2431 7.79167C11.8852 7.7884 12.5699 7.7884 13.2924 7.7884H19.8605C20.5846 7.7884 21.2677 7.7884 21.9097 7.79167ZM16.5764 13.1033C16.903 13.1033 17.2163 13.2325 17.4472 13.4625C17.6782 13.6925 17.8079 14.0045 17.8079 14.3298V14.3461C19.5961 14.7942 21.092 16.199 21.092 18.145C21.092 18.4703 20.9622 18.7823 20.7313 19.0123C20.5003 19.2423 20.1871 19.3715 19.8605 19.3715C19.5338 19.3715 19.2206 19.2423 18.9896 19.0123C18.7587 18.7823 18.6289 18.4703 18.6289 18.145C18.6289 17.5171 17.9294 16.6471 16.5764 16.6471C15.2234 16.6471 14.5239 17.5171 14.5239 18.145C14.5239 18.773 15.2234 19.6446 16.5764 19.6446C18.8506 19.6446 21.092 21.2146 21.092 23.5973C21.092 25.5433 19.5961 26.9465 17.8079 27.3962V27.4125C17.8079 27.7378 17.6782 28.0498 17.4472 28.2798C17.2163 28.5098 16.903 28.639 16.5764 28.639C16.2498 28.639 15.9366 28.5098 15.7056 28.2798C15.4747 28.0498 15.3449 27.7378 15.3449 27.4125V27.3962C13.5568 26.9481 12.0609 25.5433 12.0609 23.5973C12.0609 23.272 12.1906 22.96 12.4216 22.73C12.6525 22.5 12.9658 22.3708 13.2924 22.3708C13.619 22.3708 13.9322 22.5 14.1632 22.73C14.3942 22.96 14.5239 23.272 14.5239 23.5973C14.5239 24.2253 15.2234 25.0953 16.5764 25.0953C17.9294 25.0953 18.6289 24.2253 18.6289 23.5973C18.6289 22.9693 17.9294 22.0977 16.5764 22.0977C14.3022 22.0977 12.0609 20.5277 12.0609 18.145C12.0609 16.199 13.5568 14.7942 15.3449 14.3461V14.3298C15.3449 14.0045 15.4747 13.6925 15.7056 13.4625C15.9366 13.2325 16.2498 13.1033 16.5764 13.1033Z" fill="white"/>
</svg>