<svg xmlns="http://www.w3.org/2000/svg" width="19" height="26" viewBox="0 0 19 26" fill="none">
  <path d="M2.96343 1.23622L4.98506 0.626701C5.65227 0.42586 6.36976 0.47459 7.00368 0.763802C7.6376 1.05301 8.14467 1.56296 8.4303 2.1985L9.84763 5.35046C10.0936 5.89728 10.1622 6.5074 10.0437 7.09518C9.92521 7.68295 9.62561 8.21886 9.18697 8.62766L7.02966 10.6378C6.74056 10.9123 6.95973 11.9821 8.01595 13.8127C9.07321 15.6444 9.89042 16.3687 10.2672 16.256L13.0935 15.3918C13.6664 15.2166 14.2798 15.225 14.8477 15.4159C15.4155 15.6069 15.9094 15.9707 16.2601 16.4564L18.2744 19.2483C18.6813 19.8121 18.8697 20.5043 18.8046 21.1965C18.7395 21.8887 18.4254 22.5338 17.9206 23.0119L16.3634 24.4866C15.8607 24.9626 15.2408 25.2968 14.5667 25.4551C13.8927 25.6133 13.1888 25.5899 12.5268 25.3873C9.26421 24.3885 6.24271 21.4244 3.42161 16.5368C0.59424 11.6418 -0.473458 7.51299 0.270696 4.13978C0.420783 3.46007 0.749427 2.8327 1.22275 2.32232C1.69607 1.81194 2.29694 1.43702 2.96343 1.23622Z" fill="white"/>
</svg>