<svg xmlns="http://www.w3.org/2000/svg" width="29" height="28" viewBox="0 0 29 28" fill="none">
  <path d="M10.4226 19.6518C10.4289 19.5635 10.4321 19.4749 10.4321 19.3864C10.4321 17.3456 8.77175 15.6853 6.731 15.6853C4.69024 15.6853 3.02997 17.3457 3.02997 19.3864C3.02997 19.475 3.03312 19.5635 3.03935 19.6518C1.65406 20.2084 0.716797 21.5686 0.716797 23.0875C0.716797 25.1282 2.34823 26.7885 4.38893 26.7885C5.05025 26.7885 5.74794 26.6163 6.21052 26.2939V27.2512C6.21052 27.5066 6.41768 27.7138 6.67315 27.7138C6.92862 27.7138 7.13579 27.5066 7.13579 27.2512V26.2939C7.71405 26.6163 8.3539 26.7885 9.01522 26.7885C11.056 26.7885 12.7307 25.1282 12.7307 23.0875C12.7308 21.5686 11.8081 20.2084 10.4226 19.6518ZM9.04417 25.8633C8.29205 25.8633 7.58792 25.5673 7.06147 25.0301C6.97441 24.9413 6.85537 24.8912 6.731 24.8912C6.60662 24.8912 6.48758 24.9412 6.40052 25.0301C5.87407 25.5673 5.16994 25.8633 4.41782 25.8633C2.88726 25.8633 1.64201 24.618 1.64201 23.0875C1.64201 21.8466 2.47553 20.747 3.66907 20.4136C3.89916 20.3494 4.04246 20.1205 3.99975 19.8855C3.97017 19.7222 3.95513 19.5542 3.95513 19.3864C3.95513 17.8558 5.20038 16.6106 6.73094 16.6106C8.26151 16.6106 9.50675 17.8558 9.50675 19.3864C9.50675 19.5543 9.49172 19.7222 9.46202 19.8853C9.41921 20.1203 9.56251 20.3494 9.79271 20.4136C10.9862 20.747 11.8199 21.8466 11.8199 23.0875C11.82 24.618 10.5747 25.8633 9.04417 25.8633Z" fill="white" stroke="white" strokeWidth="0.2"/>
  <path d="M12.1841 7.07212L7.09514 0.59529C7.00734 0.483657 6.87331 0.418457 6.73134 0.418457C6.58938 0.418457 6.4553 0.483657 6.36755 0.59529L1.27857 7.07212C1.14673 7.23984 1.14673 7.47601 1.27857 7.64378L6.36755 14.1207C6.4553 14.2323 6.58938 14.2975 6.73134 14.2975C6.87331 14.2975 7.00739 14.2323 7.09514 14.1207L12.1841 7.64378C12.3159 7.47606 12.3159 7.23984 12.1841 7.07212ZM6.73134 13.0861L2.2307 7.35792L6.73134 1.62985L11.232 7.35792L6.73134 13.0861Z" fill="white" stroke="white" strokeWidth="0.2"/>
  <path d="M24.3113 15.6853C23.2289 15.6853 22.2311 16.1432 21.5355 16.936C20.8398 16.1432 19.842 15.6853 18.7597 15.6853C16.7189 15.6853 15.0586 17.3456 15.0586 19.3864C15.0586 20.6262 16.8096 22.5722 17.8534 23.6217C18.1286 23.8985 20.5703 26.3259 21.5355 26.3259C22.5006 26.3259 24.9423 23.8985 25.2176 23.6217C26.2614 22.5722 28.0124 20.6262 28.0124 19.3864C28.0124 17.3456 26.352 15.6853 24.3113 15.6853ZM24.6376 22.8925C23.102 24.4508 21.8432 25.3236 21.5355 25.3981C21.2278 25.3236 19.969 24.4508 18.4334 22.8925C16.6254 21.0577 15.9839 19.857 15.9839 19.3864C15.9839 17.8558 17.2291 16.6106 18.7597 16.6106C19.742 16.6106 20.6315 17.1135 21.1393 17.9561C21.223 18.095 21.3733 18.1799 21.5355 18.1799C21.6977 18.1799 21.848 18.095 21.9317 17.9561C22.4394 17.1135 23.329 16.6106 24.3113 16.6106C25.8419 16.6106 27.0871 17.8558 27.0871 19.3864C27.0871 19.857 26.4455 21.0576 24.6376 22.8925Z" fill="white" stroke="white" strokeWidth="0.2"/>
  <path d="M25.2101 4.04815C24.9348 3.77136 22.4967 1.34399 21.5316 1.34399C20.5664 1.34399 18.1265 3.77136 17.8513 4.04815C16.8076 5.09774 15.043 7.04366 15.043 8.28351C15.043 10.3243 16.6898 11.9846 18.7305 11.9846C19.5918 11.9846 20.4364 11.6938 21.0147 11.1758V12.4472C21.0147 12.7027 21.2218 12.9099 21.4773 12.9099C21.7328 12.9099 21.9399 12.7027 21.9399 12.4472V11.1757C22.6339 11.6937 23.4207 11.9846 24.282 11.9846C26.3228 11.9846 27.9975 10.3243 27.9975 8.28351C27.9976 7.0436 26.2538 5.09769 25.2101 4.04815ZM24.311 11.0593C23.3287 11.0593 22.4391 10.5563 21.9314 9.71369C21.8477 9.57477 21.6973 9.48984 21.5352 9.48984C21.373 9.48984 21.2226 9.57477 21.1389 9.71369C20.6313 10.5563 19.7417 11.0593 18.7593 11.0593C17.2288 11.0593 15.9835 9.81403 15.9835 8.28346C15.9835 7.81278 16.6251 6.6121 18.433 4.7774C19.9687 3.219 21.2274 2.34624 21.5352 2.27172C21.8428 2.34624 23.1016 3.219 24.6373 4.7774C26.4452 6.6121 27.0868 7.81278 27.0868 8.28346C27.0868 9.81403 25.8415 11.0593 24.311 11.0593Z" fill="white" stroke="white" strokeWidth="0.2"/>
</svg>