<svg width="1000" height="1000" viewBox="0 0 1000 1000" fill="none" xmlns="http://www.w3.org/2000/svg">
<path d="M351.564 200.645C349.066 201.033 342.288 202.392 336.401 203.557C319.633 206.857 242.036 233.837 225.447 242.184C205.289 252.472 188.343 265.089 172.467 282.17C142.677 314.004 124.303 352.243 117.168 397.275C113.065 423.286 112.887 597.982 116.989 623.216C123.946 666.695 140.001 702.217 166.58 732.692C196.905 767.437 232.403 788.012 276.107 796.359C297.513 800.435 588.278 800.629 602.192 796.553C635.372 787.042 658.561 759.673 664.091 723.957C665.875 712.116 665.875 707.652 663.556 695.811C661.951 688.047 660.167 680.477 659.453 678.924C658.74 676.789 660.167 674.848 664.627 672.325C672.832 667.472 689.065 648.838 693.881 638.55C703.336 618.363 705.476 588.859 698.698 568.866L696.022 560.713L757.921 560.131C815.896 559.549 820.534 559.16 829.988 555.278C868.34 539.75 891.887 497.046 885.108 455.507C882.076 437.261 873.87 420.374 861.919 407.369C842.475 386.405 825.528 380 788.603 380L764.521 379.806L775.759 375.147C813.755 359.23 836.41 318.08 829.988 276.541C822.496 228.597 782.36 195.793 737.942 201.616C731.52 202.586 694.06 214.039 654.459 227.432C551.71 261.983 494.27 281.005 492.843 281.005C492.13 281.005 489.454 276.347 486.778 270.718C473.043 240.049 442.896 214.621 408.825 205.11C395.803 201.422 361.553 198.704 351.564 200.645ZM756.851 261.595C775.581 267.224 782.181 295.563 768.446 310.704C762.202 317.303 739.012 325.65 614.679 365.636C589.17 373.788 568.121 380.582 567.943 380.776C567.586 380.97 569.37 388.152 571.867 396.693C574.9 406.981 576.327 416.686 576.327 426.003V440.173L694.773 440.561C811.258 441.143 813.398 441.143 818.215 445.22C827.312 452.596 830.523 459.001 830.523 470.259C830.523 481.518 827.312 487.923 818.215 495.299C813.398 499.375 811.079 499.375 717.963 499.958L622.528 500.54L581.143 482.682C549.926 469.289 537.261 464.63 528.877 463.854C517.995 463.078 517.817 462.883 516.925 456.866C514.249 439.396 502.833 340.984 503.368 340.402C503.725 339.82 529.769 331.085 561.164 320.797C592.56 310.316 646.431 292.458 680.681 281.005C715.109 269.359 744.721 259.848 746.683 259.848C748.645 259.654 753.283 260.624 756.851 261.595ZM405.971 267.418C419.706 273.241 433.62 287.411 438.971 300.998C442.182 308.763 445.393 330.309 453.421 397.469C459.129 445.026 465.194 492.776 466.621 503.84C470.01 527.327 468.762 533.926 459.486 542.855C445.037 556.637 427.912 551.978 418.636 531.985C417.03 528.491 407.754 491.999 397.943 450.655C388.311 409.504 379.035 373.594 377.429 370.877C372.791 363.307 364.05 358.648 354.596 358.648C347.104 358.648 342.288 360.783 319.811 374.371C305.362 383.106 292.162 391.452 290.2 393.199C282.172 400.963 279.853 416.88 285.205 428.527C292.519 444.443 310 448.714 326.412 438.814C331.228 435.708 335.687 433.767 336.044 434.35C336.579 434.932 343.001 460.36 350.493 491.223C365.121 551.784 370.651 566.536 384.208 582.841C398.478 600.117 420.598 610.987 441.29 610.987H450.031L443.431 618.945C419.349 648.061 417.744 696.2 439.685 729.392L446.285 739.291L363.694 738.515C271.469 737.738 272.54 737.933 245.425 723.375C221.879 710.952 200.651 689.018 186.916 663.396C184.418 658.543 179.602 646.314 176.391 636.221L170.504 617.781V511.022V404.263L176.391 385.823C189.235 345.449 212.425 315.945 245.604 297.893C255.772 292.264 331.406 266.253 345.32 263.536C350.315 262.565 363.515 262.177 374.753 262.371C391.165 262.759 397.408 263.73 405.971 267.418ZM578.111 545.961C606.117 558.19 631.626 569.642 634.836 571.583C651.426 580.9 652.496 608.463 636.799 621.08C630.02 626.709 618.96 627.68 608.793 623.604C590.062 616.034 512.287 582.065 508.898 580.124C505.152 577.989 505.33 577.6 512.109 563.819C516.211 555.472 519.958 544.602 521.206 536.644C522.455 529.462 524.239 523.639 525.309 523.639C526.558 523.639 550.283 533.732 578.111 545.961ZM552.423 664.366C573.473 673.489 591.489 680.865 592.381 680.865C593.273 680.865 596.306 683.194 599.517 685.912C620.031 704.74 609.328 739.097 582.927 739.097C573.651 739.097 493.735 704.158 486.957 697.17C474.113 683.777 476.254 661.649 491.238 651.749C501.941 644.567 510.325 646.314 552.423 664.366Z" fill="currentColor"/>
</svg>
