<svg xmlns="http://www.w3.org/2000/svg" width="22" height="23" viewBox="0 0 22 23" fill="none">
  <path d="M10.7946 14.4057C12.5284 14.4057 13.934 13.0001 13.934 11.2663C13.934 9.53249 12.5284 8.12695 10.7946 8.12695C9.06081 8.12695 7.65527 9.53249 7.65527 11.2663C7.65527 13.0001 9.06081 14.4057 10.7946 14.4057Z" stroke="white" strokeWidth="1.5"/>
  <path d="M12.6418 0.960818C12.2578 0.801758 11.7701 0.801758 10.7948 0.801758C9.81955 0.801758 9.33191 0.801758 8.94786 0.960818C8.69376 1.066 8.46288 1.22023 8.26842 1.41469C8.07396 1.60915 7.91973 1.84003 7.81455 2.09412C7.71828 2.32748 7.67956 2.60061 7.66491 2.99721C7.65839 3.28393 7.5791 3.56428 7.43449 3.81195C7.28989 4.05961 7.0847 4.26646 6.83821 4.41306C6.588 4.55333 6.30624 4.62769 6.0194 4.62915C5.73256 4.63062 5.45005 4.55914 5.19842 4.42143C4.84682 4.23516 4.59253 4.13261 4.34033 4.09912C3.79024 4.02678 3.23392 4.17584 2.79368 4.51352C2.46509 4.76781 2.22023 5.18953 1.73258 6.03401C1.24493 6.8785 1.00006 7.30022 0.946694 7.71357C0.910733 7.98612 0.928821 8.26308 0.999924 8.52864C1.07103 8.7942 1.19375 9.04315 1.36109 9.26127C1.51596 9.46219 1.73258 9.63066 2.06849 9.84205C2.56346 10.1528 2.88158 10.6823 2.88158 11.2663C2.88158 11.8502 2.56346 12.3797 2.06849 12.6894C1.73258 12.9019 1.51492 13.0703 1.36109 13.2713C1.19375 13.4894 1.07103 13.7383 0.999924 14.0039C0.928821 14.2695 0.910733 14.5464 0.946694 14.819C1.00111 15.2313 1.24493 15.654 1.73153 16.4985C2.22023 17.343 2.46405 17.7647 2.79368 18.019C3.0118 18.1864 3.26075 18.3091 3.52631 18.3802C3.79187 18.4513 4.06883 18.4694 4.34138 18.4334C4.59253 18.3999 4.84682 18.2974 5.19842 18.1111C5.45005 17.9734 5.73256 17.9019 6.0194 17.9034C6.30624 17.9048 6.588 17.9792 6.83821 18.1195C7.34365 18.4125 7.64398 18.9514 7.66491 19.5353C7.67956 19.933 7.71723 20.2051 7.81455 20.4384C7.91973 20.6925 8.07396 20.9234 8.26842 21.1178C8.46288 21.3123 8.69376 21.4665 8.94786 21.5717C9.33191 21.7308 9.81955 21.7308 10.7948 21.7308C11.7701 21.7308 12.2578 21.7308 12.6418 21.5717C12.8959 21.4665 13.1268 21.3123 13.3213 21.1178C13.5157 20.9234 13.67 20.6925 13.7751 20.4384C13.8714 20.2051 13.9101 19.933 13.9248 19.5353C13.9457 18.9514 14.246 18.4114 14.7515 18.1195C15.0017 17.9792 15.2834 17.9048 15.5703 17.9034C15.8571 17.9019 16.1396 17.9734 16.3913 18.1111C16.7429 18.2974 16.9972 18.3999 17.2483 18.4334C17.5209 18.4694 17.7978 18.4513 18.0634 18.3802C18.3289 18.3091 18.5779 18.1864 18.796 18.019C19.1256 17.7658 19.3695 17.343 19.8571 16.4985C20.3448 15.654 20.5896 15.2323 20.643 14.819C20.679 14.5464 20.6609 14.2695 20.5898 14.0039C20.5187 13.7383 20.3959 13.4894 20.2286 13.2713C20.0737 13.0703 19.8571 12.9019 19.5212 12.6905C19.2761 12.5415 19.0728 12.3326 18.9306 12.0835C18.7884 11.8343 18.7118 11.5531 18.7081 11.2663C18.7081 10.6823 19.0262 10.1528 19.5212 9.84309C19.8571 9.63067 20.0748 9.46219 20.2286 9.26127C20.3959 9.04315 20.5187 8.7942 20.5898 8.52864C20.6609 8.26308 20.679 7.98612 20.643 7.71357C20.5886 7.30126 20.3448 6.8785 19.8582 6.03401C19.3695 5.18953 19.1256 4.76781 18.796 4.51352C18.5779 4.34618 18.3289 4.22346 18.0634 4.15235C17.7978 4.08125 17.5209 4.06316 17.2483 4.09912C16.9972 4.13261 16.7429 4.23516 16.3902 4.42143C16.1387 4.55895 15.8564 4.63033 15.5698 4.62886C15.2831 4.6274 15.0016 4.55314 14.7515 4.41306C14.505 4.26646 14.2998 4.05961 14.1552 3.81195C14.0106 3.56428 13.9313 3.28393 13.9248 2.99721C13.9101 2.59956 13.8725 2.32748 13.7751 2.09412C13.67 1.84003 13.5157 1.60915 13.3213 1.41469C13.1268 1.22023 12.8959 1.066 12.6418 0.960818Z" stroke="white" strokeWidth="1.5"/>
</svg>