<svg xmlns="http://www.w3.org/2000/svg" width="24" height="26" viewBox="0 0 24 26" fill="none">
  <path d="M2.3268 13.5972C1.87714 14.1336 1.87677 14.1333 1.87641 14.133L1.87565 14.1324L1.87403 14.131L1.87044 14.128L1.86185 14.1205C1.85551 14.1149 1.84795 14.1082 1.83935 14.1003C1.82217 14.0845 1.80058 14.0638 1.77594 14.0385C1.72709 13.9883 1.66391 13.9175 1.59878 13.8278C1.47221 13.6533 1.31529 13.3754 1.27406 13.0164C1.1795 12.1931 1.70986 11.4352 2.88127 10.8237L3.1261 10.6959L3.25908 10.6226L4.3178 10.0394C5.2074 9.54926 6.42591 8.87765 7.74161 8.15183C10.3702 6.70171 13.3847 5.0363 14.94 4.16866C15.5484 3.81334 16.8598 3.08107 18.0128 2.44095C18.593 2.11888 19.1357 1.81868 19.5333 1.59903L20.0077 1.3372L20.1381 1.2653L20.1722 1.2465L20.1809 1.24169L20.1831 1.24047L20.1837 1.24016L20.1838 1.24008L20.5216 1.85319M2.3268 13.5972L2.03414 14.233L2.03423 14.2331L2.03453 14.2332L2.03562 14.2337L2.03976 14.2356L2.05569 14.2429L2.11684 14.2709C2.17012 14.2953 2.24775 14.3307 2.34569 14.375C2.54153 14.4638 2.81875 14.5886 3.14487 14.7331C3.79594 15.0215 4.64662 15.3906 5.43494 15.7081C6.34524 16.0748 7.08946 16.0692 7.63462 15.9384C7.90243 15.8742 8.11218 15.7822 8.26168 15.7005C8.3364 15.6597 8.39623 15.6213 8.44102 15.5902C8.46344 15.5745 8.48215 15.5607 8.49714 15.5491C8.50464 15.5434 8.51122 15.5382 8.51687 15.5336L8.52466 15.5273L8.52803 15.5245L8.52959 15.5232L8.53034 15.5225C8.5307 15.5222 8.53106 15.5219 8.07973 14.9868M2.3268 13.5972L1.87714 14.1336L1.94896 14.1938L2.03409 14.233L2.3268 13.5972ZM20.5216 1.85319C20.1981 1.23246 20.1984 1.23231 20.1987 1.23215L20.1993 1.23181L20.2008 1.23106L20.2042 1.2293L20.2132 1.22475L20.2394 1.21187C20.2605 1.20176 20.2887 1.18865 20.3232 1.17374C20.3915 1.14414 20.4868 1.10624 20.6007 1.07044C20.8168 1.0025 21.1532 0.924723 21.5163 0.967097C21.9067 1.01266 22.3339 1.20162 22.6216 1.6532C22.8877 2.07067 22.9759 2.6232 22.9341 3.28343C22.8974 3.98184 22.6823 5.85848 22.4181 8.16359C22.3021 9.17588 22.1766 10.2708 22.0525 11.3849L22.052 11.39L22.052 11.39L21.1717 18.8028L20.8714 21.3333L20.7862 22.0506L20.7637 22.2405L20.7579 22.2893L20.7577 22.2907L20.7572 22.2979C20.7559 22.3141 20.7539 22.336 20.7512 22.3631C20.7457 22.4172 20.7369 22.4921 20.7234 22.582C20.6966 22.7596 20.6495 23.0052 20.5678 23.2665C20.4246 23.7248 20.0872 24.5154 19.2868 24.7696C18.8744 24.9012 18.4584 24.8365 18.1267 24.733C17.7865 24.6269 17.4587 24.456 17.1776 24.2819C16.6378 23.9477 16.1713 23.5391 15.9841 23.3418C15.978 23.3361 15.9635 23.3228 15.9367 23.2987C15.9004 23.2662 15.8514 23.2229 15.7903 23.1691C15.7042 23.0933 15.5972 22.9996 15.4722 22.8902C15.4194 22.844 15.3634 22.795 15.3045 22.7433C14.9086 22.3965 14.3846 21.9363 13.8244 21.434C12.7152 20.4394 11.4271 19.2475 10.7218 18.444L10.7176 18.4393L10.7176 18.4393C10.4827 18.1668 10.2005 17.7278 10.1325 17.1611C10.0612 16.5672 10.2368 15.927 10.7597 15.31C12.3779 13.3167 14.2713 10.9074 15.6172 9.13207C13.8601 10.7549 12.1323 12.314 10.8245 13.4843C10.139 14.0976 9.56866 14.6045 9.16955 14.958C8.96999 15.1348 8.81324 15.2733 8.7063 15.3677L8.58413 15.4754L8.55271 15.5031L8.54471 15.5101L8.54267 15.5119L8.54214 15.5124L8.542 15.5125L8.07973 14.9868M20.5216 1.85319L20.1839 1.24006L20.1909 1.23618L20.1981 1.23246L20.5216 1.85319ZM8.07973 14.9868L8.54195 15.5125L8.53655 15.5173L8.53106 15.5219L8.07973 14.9868ZM16.5885 7.51082C16.5886 7.51078 16.5886 7.51223 16.5883 7.5153C16.5883 7.5124 16.5884 7.51086 16.5885 7.51082Z" stroke="white" strokeWidth="1.4"/>
</svg>