<svg xmlns="http://www.w3.org/2000/svg" width="12" height="13" viewBox="0 0 12 13" fill="none">
  <path d="M8.15719 6.70978C8.03002 6.70978 7.90806 6.76029 7.81813 6.85022C7.72821 6.94014 7.67769 7.0621 7.67769 7.18927C7.67769 7.31644 7.72821 7.43841 7.81813 7.52833C7.90806 7.61825 8.03002 7.66877 8.15719 7.66877H9.11618C9.24335 7.66877 9.36532 7.61825 9.45524 7.52833C9.54516 7.43841 9.59568 7.31644 9.59568 7.18927C9.59568 7.0621 9.54516 6.94014 9.45524 6.85022C9.36532 6.76029 9.24335 6.70978 9.11618 6.70978H8.15719ZM1.44423 0.955811C1.06272 0.955811 0.696831 1.10737 0.427062 1.37714C0.157292 1.6469 0.0057373 2.01279 0.0057373 2.3943V10.0663C0.0057373 10.7021 0.258329 11.3119 0.707945 11.7615C1.15756 12.2112 1.76737 12.4637 2.40322 12.4637H9.59568C10.1044 12.4637 10.5922 12.2617 10.9519 11.902C11.3116 11.5423 11.5137 11.0544 11.5137 10.5458V4.79179C11.5137 4.45512 11.425 4.12438 11.2567 3.83282C11.0884 3.54126 10.8462 3.29914 10.5547 3.13081V2.8738C10.5547 2.36512 10.3526 1.87727 9.99291 1.51758C9.63322 1.15788 9.14537 0.955811 8.63669 0.955811H1.44423ZM1.44423 1.9148H8.63669C8.89103 1.9148 9.13495 2.01584 9.3148 2.19569C9.49464 2.37553 9.59568 2.61946 9.59568 2.8738H1.44423C1.31706 2.8738 1.1951 2.82328 1.10517 2.73336C1.01525 2.64343 0.964732 2.52147 0.964732 2.3943C0.964732 2.26713 1.01525 2.14517 1.10517 2.05525C1.1951 1.96532 1.31706 1.9148 1.44423 1.9148ZM1.44423 3.83279H9.59568C9.85002 3.83279 10.0939 3.93383 10.2738 4.11368C10.4536 4.29352 10.5547 4.53745 10.5547 4.79179V10.5458C10.5547 10.8001 10.4536 11.044 10.2738 11.2239C10.0939 11.4037 9.85002 11.5047 9.59568 11.5047H2.40322C2.02171 11.5047 1.65583 11.3532 1.38606 11.0834C1.11629 10.8137 0.964732 10.4478 0.964732 10.0663V3.75128C1.11433 3.80402 1.2764 3.83279 1.44423 3.83279Z" fill="white"/>
</svg>